<svg version="1" xmlns="http://www.w3.org/2000/svg" width="682.667" height="682.667" viewBox="0 0 512.000000 512.000000"><path d="M52 34.3c-7.6 2.9-15 10.5-17.9 18.1L32 58.2l.2 115.1.3 115.2 2.8 5.7c3.2 6.5 9 12.1 15.6 15.2 4 1.8 6.9 2.1 20.9 2.4l16.2.4v55.9l27.9 28 27.9 27.9h56l.4 16.2c.3 14 .6 16.9 2.4 20.9 3.1 6.6 8.7 12.4 15.2 15.6l5.7 2.8h233l5.7-2.8c7-3.5 13.1-10.1 15.8-17.4 2-5.4 2-6.6 1.8-120.6l-.3-115.2-2.1-4.6c-1.2-2.6-3.8-6.4-5.7-8.6-3.8-4.2-12.6-9.2-17.3-9.8-1.6-.2-34.3-.4-72.6-.4l-69.7-.1-.3-72.3c-.3-71.3-.3-72.3-2.4-76.8-3.1-6.6-8.4-12.1-15.1-15.5l-5.8-2.9-115.5-.2-115.5-.2-5.5 2.2zM200 340v28h-56v-56h56v28z"/></svg>